<svg width="30" height="27" viewBox="0 0 30 27" fill="none" xmlns="http://www.w3.org/2000/svg">
<path d="M11.3047 3.89648C9.66406 5.89453 8.71875 8.25 8.71875 10.7695C8.71875 16.5117 13.625 21.3984 20.4688 23.1738C19.5 23.3379 18.4922 23.4258 17.4531 23.4258C9.89062 23.4258 3.75 18.8145 3.75 13.1133C3.75 9.07617 6.82813 5.58984 11.3125 3.89648H11.3047ZM16.1563 0.0292969C7.11719 0.527344 0 6.19336 0 13.1133C0 20.3613 7.8125 26.2383 17.4609 26.2383C21.1953 26.2383 24.6484 25.3594 27.4922 23.8594C27.6406 23.7832 27.7813 23.7012 27.9219 23.625C28.2969 23.4141 28.6563 23.1914 29.0078 22.957C29.2188 22.8164 29.4219 22.6758 29.625 22.5293C30.0156 22.2422 30.1172 21.7969 29.8672 21.4336C29.6172 21.0703 29.0781 20.8652 28.5391 20.9355C28.25 20.9707 27.9609 21.0059 27.6719 21.0293C27.2813 21.0586 26.8828 21.082 26.4766 21.0879C26.3828 21.0879 26.2813 21.0879 26.1875 21.0879C26.1797 21.0879 26.1719 21.0879 26.1641 21.0879C18.6016 21.0762 12.4766 16.4648 12.4766 10.7754C12.4766 7.56445 14.4219 4.69922 17.4844 2.80664C17.5625 2.75391 17.6484 2.70703 17.7344 2.6543C18.0469 2.4668 18.375 2.29102 18.7109 2.12695C18.9531 2.00977 19.2031 1.89258 19.4609 1.78711C19.9375 1.58203 20.1797 1.17188 20.0625 0.773438C19.9453 0.375 19.4922 0.0761719 18.9453 0.0410157C18.6641 0.0234375 18.3906 0.0117187 18.1094 0.00585929C17.8984 -8.94943e-08 17.6797 0 17.4688 0C17.2109 0 16.9609 0.00585942 16.7031 0.0117188C16.5234 0.0175782 16.3438 0.0234374 16.1641 0.0351562L16.1563 0.0292969Z" fill="#666666"/>
</svg>
